HIERARCHY
ROOT hip
{
	OFFSET 0.000000 0.000000 0.000000 
	CHANNELS 6 Xposition Yposition Zposition Xrotation Zrotation Yrotation
	JOINT abdomen
	{
		OFFSET 0.000000 3.402643 0.000000 
		CHANNELS 3 Xrotation Zrotation Yrotation
		JOINT chest
		{
			OFFSET 0.000000 8.438565 -0.680529 
			CHANNELS 3 Xrotation Zrotation Yrotation
			JOINT neck
			{
				OFFSET 0.000000 10.207942 -0.272212 
				CHANNELS 3 Xrotation Zrotation Yrotation
				JOINT head
				{
					OFFSET 0.000000 3.130431 0.000000 
					CHANNELS 3 Xrotation Zrotation Yrotation
					End Site
					{
						OFFSET 0.000000 3.130435 0.000000 
					}
				}
			}
			JOINT lCollar
			{
				OFFSET 3.470700 6.669187 -0.816635 
				CHANNELS 3 Yrotation Zrotation Xrotation
				JOINT lShldr
				{
					OFFSET 3.198488 0.000000 0.000000 
					CHANNELS 3 Zrotation Yrotation Xrotation
					JOINT lForeArm
					{
						OFFSET 10.139888 0.000000 0.000000 
						CHANNELS 3 Yrotation Zrotation Xrotation
						JOINT lHand
						{
							OFFSET 8.370511 0.000000 0.000000 
							CHANNELS 3 Zrotation Yrotation Xrotation
							End Site
							{
								OFFSET 4.083176 0.000000 0.000000 
							}
						}
					}
				}
			}
			JOINT rCollar
			{
				OFFSET -3.470700 6.669187 -0.816635 
				CHANNELS 3 Yrotation Zrotation Xrotation
				JOINT rShldr
				{
					OFFSET -3.198488 0.000000 0.000000 
					CHANNELS 3 Zrotation Yrotation Xrotation
					JOINT rForeArm
					{
						OFFSET -10.139888 0.000000 0.000000 
						CHANNELS 3 Yrotation Zrotation Xrotation
						JOINT rHand
						{
							OFFSET -8.370511 0.000000 0.000000 
							CHANNELS 3 Zrotation Yrotation Xrotation
							End Site
							{
								OFFSET -4.083176 0.000000 0.000000 
							}
						}
					}
				}
			}
		}
	}
	JOINT lThigh
	{
		OFFSET 5.308129 -1.633274 1.361059 
		CHANNELS 3 Xrotation Zrotation Yrotation
		JOINT lShin
		{
			OFFSET -2.041588 -20.007561 0.000000 
			CHANNELS 3 Xrotation Zrotation Yrotation
			JOINT lFoot
			{
				OFFSET 0.000000 -19.190928 -1.224953 
				CHANNELS 3 Xrotation Yrotation Zrotation
				End Site
				{
					OFFSET 0.000000 -2.449906 4.627600 
				}
			}
		}
	}
	JOINT rThigh
	{
		OFFSET -5.308129 -1.633274 1.361059 
		CHANNELS 3 Xrotation Zrotation Yrotation
		JOINT rShin
		{
			OFFSET 2.041588 -20.007561 0.000000 
			CHANNELS 3 Xrotation Zrotation Yrotation
			JOINT rFoot
			{
				OFFSET 0.000000 -19.190928 -1.224953 
				CHANNELS 3 Xrotation Yrotation Zrotation
				End Site
				{
					OFFSET 0.000000 -2.449906 4.627600 
				}
			}
		}
	}
}
MOTION
Frames: 11
Frame Time: 0.033333
-1.200422 50.683334 3.922281 -0.315333 0.224592 -0.722651 0.000000 0.000000 0.000000 -15.523030 -0.224168 -3.593799 18.715057 -8.588257 2.063328 9.326692 0.039059 0.761725 -3.521967 9.154817 6.304141 -29.145872 27.778631 -47.110744 -19.418079 8.246430 29.665892 -5.159880 8.299500 -8.087965 3.089181 -14.089146 8.026228 26.852810 -15.000781 -40.026581 11.181640 -11.453431 53.533897 -1.708900 -0.870404 -8.268429 0.634590 5.068174 7.908167 8.149721 -2.694820 -5.768108 -4.485949 0.295035 -2.567590 0.975587 -6.941233 -14.701569 7.614705 2.457557 -1.951903 -4.644610 0.045578 -1.518677 
-1.199141 50.667706 3.951324 -0.373923 0.244124 -0.664056 0.000000 0.000000 0.000000 -15.254626 -0.292364 -3.681692 18.065342 -8.879777 2.283076 9.739124 0.195292 0.820341 -3.521967 9.154817 6.304141 -29.181414 27.844210 -47.146965 -19.416636 8.212929 29.174217 -5.489033 8.365674 -8.086140 3.089181 -14.089146 8.026228 27.046490 -14.981747 -40.269661 11.171634 -11.486401 53.094906 -1.111997 -0.772299 -8.208878 0.975142 4.976626 7.844237 7.591492 -2.665146 -5.869407 -4.615799 0.289907 -2.188749 0.888456 -6.972705 -14.674651 7.996027 2.388077 -1.952193 -4.832796 0.039233 -1.469202 
-1.195778 50.660137 3.958329 -0.335132 0.263654 -0.673821 0.000000 0.000000 0.000000 -15.342044 -0.302120 -3.652395 17.955299 -8.957470 2.342470 9.866323 0.205056 0.849639 -3.521967 9.154817 6.304141 -29.164139 27.729656 -47.164288 -19.462460 8.260045 29.065525 -5.420714 8.354155 -8.093978 3.089181 -14.089146 8.026228 27.092562 -14.889355 -40.246025 11.141600 -11.465259 52.906773 -1.177493 -0.999432 -8.232411 0.936823 4.979578 7.845331 7.598694 -2.684137 -5.763556 -4.623547 0.268424 -2.187310 0.827925 -6.965011 -14.644719 8.070504 2.339422 -1.911178 -4.997473 0.049760 -1.539783 
-1.179080 50.660137 3.967271 -0.246857 0.234359 -0.664057 0.000000 0.000000 0.000000 -15.372583 -0.282628 -3.652396 17.770893 -9.015762 2.382575 9.936255 0.322233 0.820354 -3.521967 9.154817 6.304141 -29.196180 27.712440 -47.193432 -19.466469 8.250282 29.094263 -5.738704 8.412260 -8.089341 3.089181 -14.089146 8.026228 27.160248 -14.870022 -40.447029 11.211917 -11.523007 53.227959 -1.007718 -1.152045 -8.212224 0.800016 4.977608 7.858286 7.750195 -2.694762 -5.743794 -4.756162 0.291965 -2.135441 0.808488 -6.955775 -14.634188 7.950748 2.338599 -1.986456 -4.930393 0.064546 -1.533114 
-1.173776 50.662987 3.972576 -0.070312 0.166004 -0.673825 0.000000 0.000000 0.000000 -15.593523 -0.185162 -3.691450 17.741364 -8.995796 2.451620 9.937183 0.361286 0.878950 -3.521967 9.154817 6.304141 -29.173544 27.768534 -47.094635 -19.435844 8.212386 28.824406 -5.543471 8.339090 -8.082136 3.089181 -14.089146 8.026228 27.065384 -14.844159 -40.244267 11.149750 -11.468770 53.131237 -1.223271 -0.887679 -8.234307 0.575306 5.053652 7.849470 7.897030 -2.675581 -5.849277 -4.764071 0.289121 -2.168576 0.662847 -6.870059 -14.558928 7.908278 2.321154 -2.087695 -4.862203 0.051848 -1.495785 
-1.163796 50.666771 3.993157 -0.050825 0.156237 -0.732419 0.000000 0.000000 0.000000 -15.732262 -0.155934 -3.642618 18.086096 -8.879035 2.400363 9.574223 0.244109 0.918002 -3.521967 9.154817 6.304141 -29.156639 27.736818 -47.159737 -19.486092 8.253411 28.774649 -5.638341 8.327265 -8.077058 3.089181 -14.089146 8.026228 26.972353 -14.783175 -40.195019 11.164157 -11.470461 53.447449 -1.396951 -0.913326 -8.251069 0.633262 5.041095 7.876770 7.778735 -2.704427 -5.716768 -4.751258 0.259389 -2.170599 0.622478 -6.895654 -14.590614 7.968069 2.351006 -2.004631 -4.843560 0.052365 -1.474246 
-1.156887 50.662987 4.013927 -0.129435 0.205063 -0.693355 0.000000 0.000000 0.000000 -15.714910 -0.272876 -3.671927 18.324232 -8.898740 2.371417 9.358156 0.165994 0.927759 -3.521967 9.154817 6.304141 -29.067154 27.758415 -47.222908 -19.508530 8.295617 29.045889 -5.480764 8.297253 -8.089200 3.089181 -14.089146 8.026228 26.926550 -14.745865 -40.171837 11.179373 -11.459381 53.332821 -1.427042 -0.977141 -8.258780 0.731010 4.982627 7.830808 7.764730 -2.684220 -5.715119 -4.671953 0.298988 -2.259379 0.798782 -6.936906 -14.622889 7.830760 2.360626 -1.963449 -4.832399 0.069960 -1.540959 
-1.151161 50.660622 4.029117 -0.149048 0.214828 -0.683589 0.000000 0.000000 0.000000 -15.730179 -0.341103 -3.652453 18.310192 -8.840320 2.352122 9.512203 0.029293 0.947270 -3.521967 9.154817 6.304141 -29.035978 27.752953 -47.321815 -19.532516 8.331203 29.297588 -5.256296 8.169957 -8.064802 3.089181 -14.089146 8.026228 26.955629 -14.735970 -40.350250 11.200347 -11.514892 53.366135 -1.526339 -0.972107 -8.267426 0.750304 4.953304 7.818359 7.801585 -2.664289 -5.725777 -4.691886 0.287662 -2.232496 0.857213 -6.955570 -14.643928 7.811008 2.360508 -1.984124 -4.880281 0.072107 -1.572102 
-1.137493 50.665825 4.049222 -0.177978 0.195300 -0.644527 0.000000 0.000000 0.000000 -15.689692 -0.370368 -3.584099 18.098787 -8.830684 2.331324 9.854894 0.087880 0.898452 -3.521967 9.154817 6.304141 -29.050560 27.738049 -47.099293 -19.479898 8.285522 29.415409 -4.862766 8.307243 -8.109666 3.089181 -14.089146 8.026228 26.945059 -14.869875 -40.281124 11.165496 -11.492753 52.813393 -1.428146 -1.105537 -8.255322 0.848370 4.937964 7.824677 7.677249 -2.664572 -5.757626 -4.682725 0.279396 -2.204150 0.866712 -6.973624 -14.665026 7.902955 2.358398 -1.959030 -4.794438 0.060331 -1.491848 
-1.143693 50.664879 4.059304 -0.148107 0.146475 -0.634764 0.000000 0.000000 0.000000 -15.658564 -0.399608 -3.584102 17.893520 -9.054272 2.461260 9.974024 0.205051 0.927763 -3.521967 9.154817 6.304141 -29.026592 27.844572 -46.895870 -19.405157 8.195768 29.133556 -5.122446 8.107966 -8.068816 3.089181 -14.089146 8.026228 27.090906 -14.873997 -40.561695 11.191402 -11.571957 52.293098 -1.144179 -1.093261 -8.230740 0.779480 4.991058 7.820458 7.802161 -2.625338 -5.772672 -4.782358 0.277574 -2.173591 0.955572 -6.889099 -14.618700 7.665246 2.370588 -2.011789 -4.868349 0.048945 -1.571361 
-1.154433 50.670082 4.075999 -0.186236 0.058590 -0.673828 0.000000 0.000000 0.000000 -15.718835 -0.380143 -3.515742 18.110630 -9.073915 2.441970 9.769958 0.273403 0.908239 -3.521967 9.154817 6.304141 -29.178671 27.775650 -46.913570 -19.483387 8.246804 28.675146 -4.951502 7.727157 -8.037827 3.089181 -14.089146 8.026228 27.301153 -14.800943 -40.888344 11.292005 -11.680432 52.261154 -0.860386 -1.081109 -8.196477 0.828304 5.099712 7.915990 7.842981 -2.654813 -5.815944 -4.841816 0.264002 -2.137243 1.004930 -6.795802 -14.552039 7.660664 2.358865 -2.070970 -4.687678 0.062517 -1.469206 
